<svg xmlns="http://www.w3.org/2000/svg" width="24" height="24" viewBox="0 0 24 24"><path fill="#332927" fill-rule="evenodd" d="M19.624 9c1.957 0 3.556 1.535 3.657 3.467l.005.195v6.444c0 .513-.386.936-.883.993l-.117.007h-2.76v2.07c0 .554-.677 1-1.514 1-.838 0-1.516-.446-1.516-1l-.001-2.071H7.527V22.2c0 .553-.676 1-1.514 1-.837 0-1.515-.447-1.515-1v-2.07l.001-.025L2 20.106c-.513 0-.936-.386-.993-.883L1 19.106v-6.444c0-1.958 1.535-3.556 3.467-3.657L4.662 9h14.962zm0 2H4.662c-.87 0-1.583.667-1.656 1.518L3 12.662v5.444h18.286v-5.444c0-.819-.591-1.499-1.37-1.637l-.149-.019-.143-.006zM14 15c.552 0 1 .448 1 1 0 .513-.386.936-.883.993L14 17h-4c-.552 0-1-.448-1-1 0-.513.386-.936.883-.993L10 15h4zm-7.5-2c.828 0 1.5.672 1.5 1.5S7.328 16 6.5 16 5 15.328 5 14.5 5.672 13 6.5 13zm11 0c.828 0 1.5.672 1.5 1.5s-.672 1.5-1.5 1.5-1.5-.672-1.5-1.5.672-1.5 1.5-1.5zM12.333 1c3.527 0 5.876.623 7.264 1.727.902.718 1.275 1.513 1.321 2.156l.005.136v1.929c0 .552-.448 1-1 1-.513 0-.935-.386-.993-.884l-.007-.116V5.019c0-.09-.115-.364-.571-.727C17.368 3.51 15.447 3 12.333 3c-3.114 0-5.035.51-6.019 1.292-.415.33-.547.587-.568.698l-.003.029v1.823c0 .552-.448 1-1 1-.513 0-.935-.386-.993-.884l-.007-.116V5.019c0-.665.36-1.523 1.326-2.292C6.457 1.623 8.806 1 12.333 1z"></path></svg>